<svg width="1038" height="192" viewBox="0 0 1038 192" fill="none" xmlns="http://www.w3.org/2000/svg">
<path d="M808.135 56.1449C799.608 56.1449 793.056 49.0013 787.593 42.4531C786.181 40.7597 784.507 39.2343 782.574 37.8768C776.425 33.5188 768.425 31.3397 758.574 31.3397C751.649 31.3397 745.709 32.3845 740.754 34.474C735.799 36.5634 732.008 39.3992 729.381 42.9811C726.754 46.5631 725.411 50.6526 725.351 55.2494C725.351 59.0702 726.217 62.3835 727.948 65.1894C729.739 67.9953 732.157 70.3833 735.202 72.3534C738.247 74.2638 741.62 75.8756 745.321 77.189C749.022 78.5024 752.754 79.6069 756.515 80.5024L773.708 84.8007C780.633 86.4126 787.29 88.5917 793.678 91.3379C800.125 94.084 805.886 97.5466 810.961 101.726C816.095 105.905 820.154 110.949 823.139 116.859C826.124 122.77 827.617 129.695 827.617 137.635C827.617 148.381 824.871 157.843 819.378 166.022C813.886 174.141 805.946 180.499 795.558 185.096C785.23 189.633 772.723 191.902 758.037 191.902C743.769 191.902 731.381 189.693 720.874 185.275C710.427 180.857 702.248 174.41 696.337 165.933C693.435 161.727 691.194 157.066 689.613 151.949C686.832 142.941 694.69 134.948 704.118 134.948C712.81 134.948 719.35 142.272 724.319 149.403C724.674 149.912 725.048 150.407 725.441 150.888C728.904 155.127 733.411 158.291 738.963 160.38C744.575 162.47 750.843 163.515 757.768 163.515C764.992 163.515 771.32 162.44 776.753 160.291C782.245 158.082 786.544 155.037 789.648 151.157C792.752 147.217 794.334 142.62 794.394 137.366C794.334 132.59 792.931 128.65 790.185 125.546C787.439 122.382 783.588 119.755 778.633 117.665C773.738 115.516 768.007 113.606 761.44 111.934L740.575 106.561C725.471 102.681 713.531 96.8004 704.755 88.92C696.039 80.98 691.681 70.443 691.681 57.3091C691.681 46.5034 694.606 37.041 700.457 28.9219C706.367 20.8027 714.397 14.5044 724.546 10.0269C734.694 5.48978 746.187 3.22119 759.022 3.22119C772.037 3.22119 783.439 5.48978 793.23 10.0269C803.08 14.5044 810.812 20.743 816.423 28.7428C818.809 32.119 820.705 35.7112 822.109 39.5192C825.335 48.2702 817.462 56.1449 808.135 56.1449Z" fill="white"/>
<path d="M16.6114 189.129C7.43719 189.129 0 181.692 0 172.517V22.3428C0 13.1686 7.43719 5.73145 16.6114 5.73145C25.7857 5.73145 33.2228 13.1686 33.2228 22.3429V63.3708C33.2228 74.4165 42.1772 83.3708 53.2229 83.3708H98.2053C109.251 83.3708 118.205 74.4165 118.205 63.3708V22.3876C118.205 13.1887 125.663 5.73145 134.861 5.73145C144.06 5.73145 151.518 13.1887 151.518 22.3876V172.473C151.518 181.672 144.06 189.129 134.861 189.129C125.663 189.129 118.205 181.671 118.205 172.473V131.221C118.205 120.175 109.251 111.221 98.2053 111.221H53.2228C42.1772 111.221 33.2228 120.175 33.2228 131.221V172.517C33.2228 181.692 25.7857 189.129 16.6114 189.129Z" fill="white"/>
<path d="M902.137 183.397C892.963 183.397 885.526 175.96 885.526 166.786V16.6114C885.526 7.43717 892.963 0 902.137 0C911.311 0 918.748 7.43719 918.748 16.6114V57.6394C918.748 68.6851 927.703 77.6394 938.748 77.6394H983.731C994.776 77.6394 1003.73 68.6851 1003.73 57.6394V16.6562C1003.73 7.45722 1011.19 0 1020.39 0C1029.59 0 1037.04 7.45723 1037.04 16.6562V166.741C1037.04 175.94 1029.59 183.397 1020.39 183.397C1011.19 183.397 1003.73 175.94 1003.73 166.741V125.489C1003.73 114.444 994.776 105.489 983.731 105.489H938.748C927.703 105.489 918.748 114.444 918.748 125.489V166.786C918.748 175.96 911.311 183.397 902.137 183.397Z" fill="white"/>
<path d="M256.002 176.781C253.171 184.215 246.043 189.128 238.088 189.128C224.53 189.128 215.257 175.437 220.289 162.846L280.346 12.5775C283.382 4.98152 290.738 0 298.918 0H320.18C328.191 0 335.43 4.78062 338.575 12.1489L375.923 99.6529C381.268 112.175 372.08 126.086 358.465 126.086C350.741 126.086 343.787 121.405 340.88 114.249L310.22 38.7861H308.542L256.002 176.781Z" fill="white"/>
<path d="M490.443 176.781C487.612 184.215 480.484 189.128 472.529 189.128C458.97 189.128 449.698 175.437 454.729 162.846L514.787 12.5775C517.823 4.98152 525.178 0 533.359 0H554.621C562.632 0 569.87 4.78062 573.015 12.1489L610.364 99.6529C615.708 112.175 606.521 126.086 592.906 126.086C585.182 126.086 578.228 121.405 575.32 114.249L544.661 38.7861H542.983L490.443 176.781Z" fill="white"/>
<circle cx="381.182" cy="168.114" r="21.0143" fill="#7EBD20"/>
<circle cx="615.623" cy="168.114" r="21.0143" fill="#7EBD20"/>
<path d="M990.028 31.5953C990.028 47.6674 976.999 60.6964 960.927 60.6964C944.855 60.6964 931.826 47.6674 931.826 31.5953C931.826 15.5232 944.855 2.49414 960.927 2.49414C976.999 2.49414 990.028 15.5232 990.028 31.5953Z" fill="#7EBD20"/>
</svg>
