<svg width="94" height="18" viewBox="0 0 94 18" fill="none" xmlns="http://www.w3.org/2000/svg">
<path d="M73.2513 5.08934C72.4783 5.08934 71.8844 4.44183 71.3893 3.84829C71.2613 3.6948 71.1096 3.55653 70.9343 3.43348C70.3769 3.03846 69.6518 2.84094 68.759 2.84094C68.1312 2.84094 67.5928 2.93564 67.1437 3.12504C66.6945 3.31443 66.3509 3.57147 66.1128 3.89615C65.8747 4.22083 65.753 4.5915 65.7476 5.00818C65.7476 5.3545 65.826 5.65483 65.983 5.90916C66.1453 6.16349 66.3645 6.37994 66.6404 6.55852C66.9164 6.73168 67.2221 6.87778 67.5576 6.99683C67.8931 7.11588 68.2314 7.21599 68.5723 7.29716L70.1307 7.68678C70.7584 7.83288 71.3618 8.03039 71.9408 8.27931C72.5252 8.52824 73.0474 8.84209 73.5074 9.22088C73.9728 9.59968 74.3407 10.0569 74.6113 10.5927C74.8819 11.1284 75.0171 11.7561 75.0171 12.4758C75.0171 13.4498 74.7682 14.3075 74.2704 15.0489C73.7725 15.7848 73.0528 16.3611 72.1113 16.7778C71.1751 17.189 70.0414 17.3947 68.7103 17.3947C67.417 17.3947 66.2941 17.1945 65.3417 16.794C64.3947 16.3936 63.6534 15.8092 63.1177 15.0408C62.8546 14.6595 62.6514 14.237 62.5082 13.7732C62.256 12.9567 62.9683 12.2323 63.8229 12.2323C64.6108 12.2323 65.2036 12.8961 65.654 13.5425C65.6862 13.5886 65.72 13.6335 65.7557 13.6771C66.0695 14.0613 66.4781 14.3481 66.9813 14.5375C67.49 14.7269 68.0582 14.8216 68.6859 14.8216C69.3407 14.8216 69.9143 14.7242 70.4067 14.5294C70.9045 14.3292 71.2942 14.0532 71.5755 13.7015C71.8569 13.3443 72.0003 12.9276 72.0057 12.4514C72.0003 12.0185 71.8732 11.6614 71.6242 11.38C71.3753 11.0932 71.0263 10.8551 70.5772 10.6657C70.1334 10.4709 69.6139 10.2977 69.0187 10.1462L67.1274 9.6592C65.7584 9.30747 64.6761 8.77445 63.8807 8.06016C63.0906 7.34045 62.6956 6.38535 62.6956 5.19486C62.6956 4.21542 62.9607 3.35772 63.491 2.62178C64.0268 1.88585 64.7546 1.31495 65.6745 0.909103C66.5944 0.497843 67.6361 0.292213 68.7995 0.292213C69.9792 0.292213 71.0128 0.497843 71.9002 0.909103C72.7931 1.31495 73.4939 1.88043 74.0025 2.60555C74.2188 2.91158 74.3906 3.23718 74.5178 3.58235C74.8103 4.37556 74.0967 5.08934 73.2513 5.08934Z" fill="white"/>
<path d="M1.5057 17.143C0.674124 17.143 0 16.4689 0 15.6373V2.02517C0 1.1936 0.674124 0.51947 1.5057 0.51947C2.33727 0.51947 3.0114 1.19359 3.0114 2.02517V4.03818C3.0114 5.98151 4.58678 7.55689 6.5301 7.55689H7.19569C9.13902 7.55689 10.7144 5.98151 10.7144 4.03818V2.02923C10.7144 1.19541 11.3903 0.51947 12.2242 0.51947C13.058 0.51947 13.7339 1.19541 13.7339 2.02923V15.6333C13.7339 16.4671 13.058 17.143 12.2242 17.143C11.3903 17.143 10.7144 16.4671 10.7144 15.6333V13.6121C10.7144 11.6621 9.13357 10.0813 7.18352 10.0813H6.54228C4.59223 10.0813 3.0114 11.6621 3.0114 13.6121V15.6373C3.0114 16.4689 2.33727 17.143 1.5057 17.143Z" fill="white"/>
<path d="M81.7718 16.6236C80.9402 16.6236 80.2661 15.9494 80.2661 15.1179V1.50569C80.2661 0.674118 80.9402 -7.62939e-06 81.7718 -7.62939e-06C82.6034 -7.62939e-06 83.2775 0.674117 83.2775 1.50569V3.5187C83.2775 5.46203 84.8529 7.03741 86.7962 7.03741H87.4618C89.4051 7.03741 90.9805 5.46203 90.9805 3.5187V1.50975C90.9805 0.675934 91.6564 -7.62939e-06 92.4902 -7.62939e-06C93.3241 -7.62939e-06 94 0.675934 94 1.50975V15.1138C94 15.9476 93.3241 16.6236 92.4902 16.6236C91.6564 16.6236 90.9805 15.9476 90.9805 15.1138V13.0927C90.9805 11.1426 89.3997 9.56179 87.4496 9.56179H86.8084C84.8583 9.56179 83.2775 11.1426 83.2775 13.0927V15.1179C83.2775 15.9494 82.6034 16.6236 81.7718 16.6236Z" fill="white"/>
<path d="M23.2046 16.0238C22.9481 16.6977 22.302 17.143 21.5809 17.143C20.3519 17.143 19.5114 15.902 19.9675 14.7608L25.0492 2.04607C25.543 0.810378 26.7396 -7.62939e-06 28.0704 -7.62939e-06C29.3736 -7.62939e-06 30.5511 0.777692 31.0627 1.97634L34.0745 9.03277C34.559 10.1678 33.7262 11.4287 32.4921 11.4287C31.792 11.4287 31.1617 11.0044 30.8982 10.3558L28.1191 3.51566H27.967L23.2046 16.0238Z" fill="white"/>
<path d="M44.4549 16.0238C44.1983 16.6977 43.5522 17.143 42.8311 17.143C41.6022 17.143 40.7617 15.902 41.2178 14.7608L46.2994 2.04607C46.7933 0.810378 47.9899 -7.62939e-06 49.3206 -7.62939e-06C50.6239 -7.62939e-06 51.8014 0.777692 52.313 1.97634L55.3248 9.03277C55.8092 10.1678 54.9765 11.4287 53.7424 11.4287C53.0422 11.4287 52.4119 11.0044 52.1484 10.3558L49.3693 3.51566H49.2173L44.4549 16.0238Z" fill="white"/>
<circle cx="34.5513" cy="15.2382" r="1.90478" fill="#7EBD20"/>
<circle cx="55.8015" cy="15.2382" r="1.90478" fill="#7EBD20"/>
<path d="M89.7385 2.86365C89.7385 4.32047 88.5575 5.50145 87.1007 5.50145C85.6439 5.50145 84.4629 4.32047 84.4629 2.86365C84.4629 1.40684 85.6439 0.225861 87.1007 0.225861C88.5575 0.225861 89.7385 1.40684 89.7385 2.86365Z" fill="#7EBD20"/>
</svg>
