<svg width="64" height="94" viewBox="0 0 64 94" fill="none" xmlns="http://www.w3.org/2000/svg">
<path d="M31.4053 0.5C37.5104 0.5 42.9773 1.38389 47.7979 3.16211C52.6289 4.91633 56.4612 7.5856 59.2725 11.1777C62.1002 14.7631 63.5 19.2375 63.5 24.5654C63.5 27.9938 62.8942 31.0333 61.6699 33.6729L61.6709 33.6738C60.4822 36.2696 58.8153 38.5654 56.6738 40.5586C54.5758 42.5098 52.1225 44.2854 49.3193 45.8896C47.3046 47.046 45.6235 48.2386 44.2686 49.4629L44.2637 49.4668C42.9267 50.6481 41.9238 51.9975 41.2471 53.5156L41.2461 53.5186C40.5752 54.9971 40.2285 56.8166 40.2285 58.9941V61.5H19.1846V58.9941C19.1846 54.378 19.5543 50.6652 20.3066 47.875C21.0101 45.2662 22.0378 43.1153 23.4053 41.4434L23.6836 41.1152C25.1621 39.4045 26.9685 37.8706 29.0977 36.5117C30.8995 35.3482 32.5011 34.2285 33.9033 33.1523L33.9072 33.1494C35.316 32.0895 36.4067 30.9727 37.1904 29.8027L37.1943 29.7959C37.9829 28.6579 38.3799 27.3654 38.3799 25.9023C38.3799 24.5949 38.0616 23.4654 37.4395 22.4961C36.81 21.5154 35.9586 20.7532 34.875 20.207C33.7901 19.6603 32.5798 19.3828 31.2354 19.3828C29.7873 19.3829 28.4537 19.7103 27.2275 20.3652L27.2285 20.3662C26.0305 21.0211 25.0596 21.9216 24.3125 23.0742C23.6034 24.2113 23.2422 25.5389 23.2422 27.0723V27.5723H0.495117L0.5 27.0674C0.557356 20.8666 1.99043 15.7845 4.8418 11.8623C7.58627 8.06019 11.2 5.24613 15.6709 3.42285L16.1064 3.25C20.7568 1.41449 25.8583 0.500022 31.4053 0.5Z" stroke="white"/>
<rect x="17.5" y="73.5" width="23" height="20" stroke="white"/>
</svg>
